<?xml version="1.0" encoding="UTF-8" standalone="no"?>
<svg
   xmlns:cc="http://creativecommons.org/ns#"
   xmlns:svg="http://www.w3.org/2000/svg"
   xmlns="http://www.w3.org/2000/svg"
   viewBox="0 0 55 55"
   id="svg2"
   version="1.1">
<path
   d="m 31.2,50.5 v -2.1 c 0,-0.5 0.2,-0.9 0.6,-1.1 L 44,40.1 c 0.3,-0.2 0.5,-0.5 0.5,-0.8 v -4 c 0,-0.6 -0.3,-1.1 -0.8,-1.4 -0.2,-0.1 -0.5,-0.2 -0.7,-0.2 -0.3,0 -0.5,0.1 -0.8,0.2 l -12.6,7.4 c -0.8,0.5 -1.3,1.4 -1.3,2.3 V 55 C 43.1,54.6 55,42.4 55,27.5 55,12.3 42.7,0 27.5,0 12.3,0 0,12.3 0,27.5 0,42.4 11.9,54.6 26.7,55 V 43.6 c 0,-1 -0.5,-1.8 -1.3,-2.3 L 12.8,33.9 c -0.2,-0.1 -0.5,-0.2 -0.8,-0.2 -0.2,0 -0.5,0.1 -0.7,0.2 -0.5,0.3 -0.8,0.8 -0.8,1.4 v 4 c 0,0.3 0.2,0.7 0.5,0.8 l 12.2,7.2 c 0.4,0.2 0.6,0.7 0.6,1.1 v 2.1 c 0,0.8 -0.8,1.4 -1.6,1.3 C 11.1,49.3 2.7,39.4 2.7,27.5 2.7,13.8 13.8,2.7 27.5,2.7 c 13.7,0 24.8,11.1 24.8,24.8 0,11.9 -8.4,21.8 -19.5,24.2 -0.9,0.2 -1.6,-0.4 -1.6,-1.2 M 33,9.4 C 33,9.2 32.9,9.1 32.8,9 L 28,6.2 C 27.8,6.1 27.7,6.1 27.5,6.1 27.3,6.1 27.2,6.1 27,6.2 L 22.2,9 C 22.1,9.1 22,9.2 22,9.4 c 0,0.2 0.1,0.3 0.2,0.4 l 4.8,2.8 c 0.3,0.2 0.7,0.2 1,0 L 32.9,9.8 C 32.9,9.7 33,9.6 33,9.4 M 28.3,34.3 V 40 L 47.6,28.6 c 0.3,-0.2 0.5,-0.5 0.5,-0.8 v -4 c 0,-0.6 -0.3,-1 -0.8,-1.3 -0.2,-0.2 -0.5,-0.2 -0.7,-0.2 -0.3,0 -0.5,0.1 -0.8,0.2 L 29.6,32 c -0.8,0.5 -1.3,1.4 -1.3,2.3 m 0,-18.4 v 5.7 l 9.3,-5.4 c 0.3,-0.2 0.5,-0.5 0.5,-0.8 v -4 c 0,-0.6 -0.3,-1 -0.8,-1.3 C 37.1,10 36.8,9.9 36.5,9.9 36.2,9.9 36,10 35.7,10.1 l -6.1,3.6 c -0.8,0.3 -1.3,1.2 -1.3,2.2 m 0,9.2 v 5.7 L 44,21.6 c 0.3,-0.2 0.5,-0.5 0.5,-0.8 v -4 c 0,-0.6 -0.3,-1 -0.8,-1.3 -0.2,-0.1 -0.5,-0.2 -0.8,-0.2 -0.3,0 -0.5,0.1 -0.8,0.2 l -12.6,7.4 c -0.7,0.4 -1.2,1.3 -1.2,2.2 M 25.3,32 9.1,22.5 C 8.9,22.3 8.7,22.3 8.4,22.3 c -0.3,0 -0.5,0.1 -0.8,0.2 -0.5,0.3 -0.8,0.8 -0.8,1.3 v 4 c 0,0.3 0.2,0.7 0.5,0.8 L 26.6,40 V 34.3 C 26.7,33.4 26.2,32.5 25.3,32 m 0,-18.5 -6.1,-3.6 C 19,9.8 18.7,9.7 18.4,9.7 c -0.3,0 -0.5,0.1 -0.8,0.2 -0.5,0.3 -0.8,0.8 -0.8,1.3 v 4 c 0,0.3 0.2,0.7 0.5,0.8 l 9.3,5.4 V 15.7 C 26.7,14.9 26.2,14 25.3,13.5 m 0,9.3 -12.6,-7.4 c -0.2,-0.1 -0.5,-0.2 -0.8,-0.2 -0.3,0 -0.5,0.1 -0.8,0.2 -0.5,0.3 -0.8,0.8 -0.8,1.3 v 4 c 0,0.3 0.2,0.7 0.5,0.8 l 15.7,9.3 v -5.7 c 0.2,-0.9 -0.3,-1.8 -1.2,-2.3" />
</svg>
