<?xml version="1.0" encoding="UTF-8" standalone="no"?>
<svg
   xmlns:cc="http://creativecommons.org/ns#"
   xmlns:svg="http://www.w3.org/2000/svg"
   xmlns="http://www.w3.org/2000/svg"
   viewBox="0 0 122 122"
   id="svg2"
   version="1.1">

<path d="M75.8237 31.6108C74.9391 26.4432 73.0304 21.7412 70.3302 17.5978C67.63 19.2737 65.2557 21.4618 63.347 24.0689C64.9298 26.9088 66.0471 29.9814 66.6058 33.2402C67.63 39.1061 66.373 46.9739 63.0676 56.1453C61.2985 60.9404 58.9708 66.108 56.1309 71.5084C54.9671 73.743 53.7566 75.838 52.5928 77.8398C50.4978 81.378 48.4959 84.5438 46.7734 87.1043C42.8628 84.2179 37.7883 80.2607 32.6207 75.6518C19.4457 63.6872 11.3451 52.1881 9.76223 43.2495C8.41213 35.6611 10.1347 27.9795 14.5574 21.648C18.9801 15.3166 25.5909 11.0801 33.1794 9.77654C34.8553 9.49721 36.5779 9.31099 38.2538 9.31099C43.7008 9.31099 49.0546 10.8939 53.6635 13.8268C55.7119 11.3594 58.0397 9.17132 60.6468 7.30912C54.2687 2.65363 46.4941 0 38.2538 0C36.0658 0 33.8311 0.18622 31.5499 0.605214C10.7864 4.2365 -3.08694 24.0689 0.590904 44.879C5.43262 72.2998 49.1011 100 49.1011 100C49.1011 100 53.0118 94.879 57.9 87.1043C58.1328 86.7318 58.3656 86.3129 58.6449 85.9404C58.8311 85.6145 59.0639 85.2886 59.2501 84.9162C59.7157 84.1713 60.1812 83.3799 60.6468 82.5419C61.0192 81.9367 61.3916 81.2849 61.7641 80.6331C61.8572 80.4469 61.9969 80.2607 62.09 80.0745C62.3227 79.702 62.509 79.3296 62.7417 78.9572C62.8814 78.7244 62.9745 78.4916 63.1142 78.2588C63.3004 77.8864 63.4866 77.5605 63.6728 77.1881C63.7659 77.0019 63.9056 76.8156 63.9987 76.5829C64.6505 75.3724 65.3023 74.162 65.9075 72.905C66.1403 72.486 66.3265 72.067 66.5592 71.6015C66.7455 71.2291 66.9317 70.8101 67.1179 70.4376C67.5369 69.5531 68.0024 68.622 68.4214 67.6909C73.8218 55.8659 77.779 42.6443 75.8237 31.6108Z"/>
<path d="M89.7436 0.605214C87.509 0.18622 85.2743 0 83.0397 0C76.5685 0 70.3302 1.67598 64.8833 4.60894C64.5108 4.79516 64.1849 4.98138 63.859 5.21415C63.5332 5.40037 63.2073 5.58659 62.9279 5.77281C62.5555 6.00559 62.1365 6.28492 61.7641 6.51769C61.4847 6.70391 61.2054 6.89013 60.9261 7.07635C60.8795 7.1229 60.833 7.1229 60.7864 7.16946C60.4605 7.40223 60.1812 7.63501 59.8553 7.86778C59.576 8.10056 59.2501 8.33333 58.9708 8.56611C58.9242 8.61266 58.8777 8.65922 58.8311 8.70577C58.5518 8.93855 58.319 9.12477 58.0397 9.35754C57.9931 9.4041 57.9466 9.45065 57.9 9.45065C57.6207 9.68343 57.3879 9.9162 57.1086 10.149C57.062 10.1955 57.0155 10.2421 56.9689 10.2421C56.7361 10.4749 56.4568 10.7076 56.224 10.987L56.1775 11.0335C55.8982 11.3128 55.6188 11.5922 55.3395 11.8715C55.3395 11.8715 55.3395 11.8715 55.3395 11.9181C55.1067 12.1508 54.9205 12.3371 54.7343 12.5698C54.455 12.8957 54.1756 13.2216 53.8963 13.5475C53.8032 13.6872 53.6635 13.7803 53.5704 13.9199C53.4773 14.0596 53.3376 14.1993 53.2445 14.3389C53.1514 14.4786 53.0117 14.6182 52.9186 14.7579C52.7324 14.9907 52.5928 15.1769 52.4065 15.4097C52.3134 15.5493 52.1738 15.689 52.0807 15.8287C51.941 16.0149 51.8013 16.2011 51.6617 16.4339C51.3823 16.8063 51.1496 17.1788 50.8702 17.5978C48.2166 21.7412 46.3078 26.4432 45.4233 31.6108C43.468 42.6443 47.4252 55.8659 52.8721 67.7374C54.9671 63.6872 56.7361 59.7765 58.1328 56.0987C54.7808 46.9739 53.5704 39.1061 54.5946 33.1937C55.1533 29.8883 56.3172 26.8156 57.8535 24.0223C60.9726 18.4358 65.9075 14.0596 71.7734 11.5456C75.2185 10.1024 79.036 9.26443 82.9931 9.26443C84.6691 9.26443 86.3916 9.4041 88.0676 9.72998C95.6561 11.0801 102.313 15.27 106.736 21.6015C111.159 27.933 112.881 35.6145 111.531 43.203C109.948 52.1881 101.801 63.6406 88.5797 75.5587C83.4121 80.2142 78.3376 84.1713 74.427 87.0112C71.9596 83.2868 68.8404 78.3985 65.8609 72.8585C64.1384 76.257 62.3227 79.5158 60.6002 82.4488C66.6523 92.7374 72.1458 99.9069 72.1458 99.9069C72.1458 99.9069 115.907 72.2998 120.749 44.879C124.38 24.0689 110.507 4.2365 89.7436 0.605214Z"/>
</svg>
